<svg width="0" height="0"><symbol xmlns="http://www.w3.org/2000/svg" id="cross-bold" viewBox="0 0 512.021 512.021"><path d="M301.258 256.01 502.645 54.645c12.501-12.501 12.501-32.769 0-45.269-12.501-12.501-32.769-12.501-45.269 0L256.01 210.762 54.645 9.376c-12.501-12.501-32.769-12.501-45.269 0s-12.501 32.769 0 45.269L210.762 256.01 9.376 457.376c-12.501 12.501-12.501 32.769 0 45.269s32.769 12.501 45.269 0L256.01 301.258l201.365 201.387c12.501 12.501 32.769 12.501 45.269 0 12.501-12.501 12.501-32.769 0-45.269L301.258 256.01z"/></symbol><symbol xmlns="http://www.w3.org/2000/svg" xml:space="preserve" id="spinner" viewBox="0 0 512.001 512.001"><g><path d="M268.078 512c-141.385-.038-255.97-114.684-255.932-256.068S126.83-.038 268.215 0c96.559.026 184.888 54.38 228.428 140.565 7.695 15.91 1.035 35.046-14.875 42.74-15.501 7.497-34.155 1.384-42.213-13.834C391.771 74.81 276.296 36.808 181.634 84.592S48.97 247.851 96.754 342.513s163.259 132.664 257.921 84.88a191.996 191.996 0 0 0 84.646-84.417c8.018-15.753 27.287-22.023 43.04-14.005 15.753 8.018 22.023 27.287 14.005 43.04C452.852 458.077 364.519 512.244 268.078 512z"/></g></symbol></svg>